<?xml version="1.0" encoding="UTF-8" standalone="no"?>
<!-- Created with Inkscape (http://www.inkscape.org/) -->

<svg
   xmlns:dc="http://purl.org/dc/elements/1.1/"
   xmlns:cc="http://creativecommons.org/ns#"
   xmlns:rdf="http://www.w3.org/1999/02/22-rdf-syntax-ns#"
   xmlns:svg="http://www.w3.org/2000/svg"
   xmlns="http://www.w3.org/2000/svg"
   xmlns:xlink="http://www.w3.org/1999/xlink"
   xmlns:sodipodi="http://sodipodi.sourceforge.net/DTD/sodipodi-0.dtd"
   xmlns:inkscape="http://www.inkscape.org/namespaces/inkscape"
   width="96"
   height="96"
   viewBox="0 0 25.4 25.4"
   version="1.1"
   id="svg8"
   inkscape:version="0.92.2 (5c3e80d, 2017-08-06)"
   sodipodi:docname="avatar-comentario.svg">
  <defs
     id="defs2">
    <linearGradient
       inkscape:collect="always"
       id="linearGradient4662">
      <stop
         style="stop-color:#000000;stop-opacity:1;"
         offset="0"
         id="stop4658" />
      <stop
         style="stop-color:#000000;stop-opacity:0;"
         offset="1"
         id="stop4660" />
    </linearGradient>
    <linearGradient
       inkscape:collect="always"
       id="linearGradient4591">
      <stop
         style="stop-color:#000000;stop-opacity:1;"
         offset="0"
         id="stop4587" />
      <stop
         style="stop-color:#000000;stop-opacity:0;"
         offset="1"
         id="stop4589" />
    </linearGradient>
    <radialGradient
       inkscape:collect="always"
       xlink:href="#linearGradient4591"
       id="radialGradient4593"
       cx="-5.3462443"
       cy="293.19141"
       fx="-5.3462443"
       fy="293.19141"
       r="9.9549361"
       gradientTransform="matrix(1,0,0,1.0000857,3.0067822,-18.065829)"
       gradientUnits="userSpaceOnUse" />
    <linearGradient
       inkscape:collect="always"
       xlink:href="#linearGradient4591"
       id="linearGradient4656"
       x1="-14.267998"
       y1="284.43835"
       x2="6.3835468"
       y2="284.43835"
       gradientUnits="userSpaceOnUse"
       gradientTransform="translate(1.6026514,-9.287262)" />
    <radialGradient
       inkscape:collect="always"
       xlink:href="#linearGradient4662"
       id="radialGradient4664"
       cx="0.20045215"
       cy="282.70126"
       fx="0.20045215"
       fy="282.70126"
       r="10.325772"
       gradientTransform="matrix(-0.04529653,0.97063882,-0.99901138,-0.04662059,284.23396,286.39896)"
       gradientUnits="userSpaceOnUse" />
    <filter
       inkscape:label="Ridged Border"
       inkscape:menu="Bevels"
       inkscape:menu-tooltip="Ridged border with inner bevel"
       style="color-interpolation-filters:sRGB;"
       id="filter4805">
      <feMorphology
         radius="4.3"
         in="SourceAlpha"
         result="result91"
         id="feMorphology4791" />
      <feComposite
         operator="out"
         in="SourceGraphic"
         in2="result91"
         id="feComposite4793" />
      <feGaussianBlur
         result="result0"
         stdDeviation="1.2"
         id="feGaussianBlur4795" />
      <feDiffuseLighting
         diffuseConstant="1"
         id="feDiffuseLighting4799">
        <feDistantLight
           elevation="66"
           azimuth="225"
           id="feDistantLight4797" />
      </feDiffuseLighting>
      <feBlend
         mode="multiply"
         in2="SourceGraphic"
         id="feBlend4801" />
      <feComposite
         operator="in"
         in2="SourceAlpha"
         id="feComposite4803" />
    </filter>
  </defs>
  <sodipodi:namedview
     id="base"
     pagecolor="#ffffff"
     bordercolor="#666666"
     borderopacity="1.0"
     inkscape:pageopacity="0.0"
     inkscape:pageshadow="2"
     inkscape:zoom="2.4527766"
     inkscape:cx="-19.061904"
     inkscape:cy="28.608164"
     inkscape:document-units="mm"
     inkscape:current-layer="g4580"
     showgrid="false"
     units="px"
     width="96px"
     inkscape:window-width="1440"
     inkscape:window-height="848"
     inkscape:window-x="-8"
     inkscape:window-y="-8"
     inkscape:window-maximized="1" />
  <metadata
     id="metadata5">
    <rdf:RDF>
      <cc:Work
         rdf:about="">
        <dc:format>image/svg+xml</dc:format>
        <dc:type
           rdf:resource="http://purl.org/dc/dcmitype/StillImage" />
        <dc:title></dc:title>
      </cc:Work>
    </rdf:RDF>
  </metadata>
  <g
     inkscape:label="Capa 1"
     inkscape:groupmode="layer"
     id="layer1"
     transform="translate(0,-271.6)">
    <g
       id="g4668"
       transform="matrix(1.2271307,0,0,1.2271307,15.569418,-53.351033)">
      <path
         d="m 7.4782513,276.80814 a 9.9557896,9.9557896 0 0 1 -11.0167184,8.22581 9.9557896,9.9557896 0 0 1 -8.7284119,-10.62294 9.9557896,9.9557896 0 0 1 10.2062549,-9.21219 9.9557896,9.9557896 0 0 1 9.6760982,9.76756"
         sodipodi:open="true"
         sodipodi:end="6.2646674"
         sodipodi:start="0.16725577"
         sodipodi:ry="9.9557896"
         sodipodi:rx="9.9557896"
         sodipodi:cy="275.15073"
         sodipodi:cx="-2.3386085"
         sodipodi:type="arc"
         id="path4519"
         style="opacity:1;fill:#204a87;fill-opacity:1;stroke:url(#radialGradient4593);stroke-width:0.74117947;stroke-linecap:round;stroke-linejoin:round;stroke-miterlimit:4;stroke-dasharray:none;stroke-opacity:0;paint-order:normal" />
      <path
         d="m 7.4782513,276.80814 a 9.9557896,9.9557896 0 0 1 -11.0167184,8.22581 9.9557896,9.9557896 0 0 1 -8.7284119,-10.62294 9.9557896,9.9557896 0 0 1 10.2062549,-9.21219 9.9557896,9.9557896 0 0 1 9.6760982,9.76756"
         sodipodi:open="true"
         sodipodi:end="6.2646674"
         sodipodi:start="0.16725577"
         sodipodi:ry="9.9557896"
         sodipodi:rx="9.9557896"
         sodipodi:cy="275.15073"
         sodipodi:cx="-2.3386085"
         sodipodi:type="arc"
         id="path4519-469"
         style="opacity:1;fill:url(#radialGradient4664);fill-opacity:1;stroke:url(#linearGradient4656);stroke-width:0.74117947;stroke-linecap:round;stroke-linejoin:round;stroke-miterlimit:4;stroke-dasharray:none;stroke-opacity:0;paint-order:normal" />
    </g>
    <g
       id="g4580"
       transform="matrix(0.69773517,0,0,0.69773517,2.4452315,85.974846)"
       style="fill:#ffffff">
      <g
         id="g4585"
         style="fill:#ffffff;filter:url(#filter4805)"
         transform="matrix(1.1349465,0,0,1.1349465,-3.0038871,-37.320469)">
        <g
           id="g4689">
          <path
             d="m 10.295695,290.88641 a 2.0518003,2.0518003 0 0 1 -2.2704485,1.69527 2.0518003,2.0518003 0 0 1 -1.7988486,-2.1893 2.0518003,2.0518003 0 0 1 2.103419,-1.89855 2.0518003,2.0518003 0 0 1 1.9941581,2.01301"
             sodipodi:open="true"
             sodipodi:end="6.2646674"
             sodipodi:start="0.16725577"
             sodipodi:ry="2.0518003"
             sodipodi:rx="2.0518003"
             sodipodi:cy="290.54483"
             sodipodi:cx="8.2725267"
             sodipodi:type="arc"
             id="path4519-4"
             style="opacity:1;fill:#ffffff;fill-opacity:1;stroke:none;stroke-width:0.15275055;stroke-linecap:round;stroke-linejoin:round;stroke-miterlimit:4;stroke-dasharray:none;stroke-opacity:0;paint-order:normal" />
          <path
             d="m 22.827634,274.17594 a 1.8868995,1.8868995 0 0 1 -2.087975,1.55902 1.8868995,1.8868995 0 0 1 -1.654277,-2.01334 1.8868995,1.8868995 0 0 1 1.93437,-1.74597 1.8868995,1.8868995 0 0 1 1.83389,1.85123"
             sodipodi:open="true"
             sodipodi:end="6.2646674"
             sodipodi:start="0.16725577"
             sodipodi:ry="1.8868995"
             sodipodi:rx="1.8868995"
             sodipodi:cy="273.86182"
             sodipodi:cx="20.967066"
             sodipodi:type="arc"
             id="path4519-46"
             style="opacity:1;fill:#ffffff;fill-opacity:1;stroke:none;stroke-width:0.14047414;stroke-linecap:round;stroke-linejoin:round;stroke-miterlimit:4;stroke-dasharray:none;stroke-opacity:0;paint-order:normal" />
          <path
             inkscape:connector-curvature="0"
             d="m 9.777423,290.23861 c 0.351607,0.0114 0.703552,0.0111 1.055321,0.0129 0.519131,0.0183 1.03605,-0.0219 1.551398,-0.0799 0.534436,-0.0656 1.058388,-0.18866 1.575124,-0.3371 0.486795,-0.14655 0.951496,-0.35277 1.425227,-0.53428 0.341748,-0.14131 0.687338,-0.2733 1.023932,-0.42665 0.127951,-0.0599 0.252429,-0.12739 0.376644,-0.1947 0.04218,-0.0229 0.166354,-0.0956 0.124619,-0.072 -0.720335,0.40832 -0.92968,0.542 -0.560021,0.3107 0.473877,-0.30285 0.970398,-0.56811 1.453019,-0.85616 0.215277,-0.12848 -0.43398,0.25125 -0.653962,0.3715 -0.05333,0.0292 0.102491,-0.0654 0.153737,-0.098 0.271876,-0.17186 0.512065,-0.38624 0.768215,-0.57944 0.186409,-0.11957 0.349896,-0.26612 0.510318,-0.4173 0.115858,-0.0934 0.195052,-0.214 0.265699,-0.34271 0.06738,-0.12239 0.126963,-0.24712 0.161888,-0.38262 0.0247,-0.10664 0.03498,-0.21177 -0.02414,-0.3074 -0.07462,-0.10182 -0.197914,-0.14561 -0.305959,-0.20271 -0.139156,-0.079 -0.278219,-0.15684 -0.412425,-0.24427 -0.154693,-0.0876 -0.303977,-0.1845 -0.460073,-0.26965 -0.122783,-0.0899 -0.262496,-0.14668 -0.404332,-0.19821 -0.142426,-0.0257 -0.273122,-0.0646 -0.409594,-0.11204 -0.18012,-0.0893 -0.376774,-0.13415 -0.559816,-0.2155 -0.147789,-0.0561 -0.291395,-0.12004 -0.437481,-0.17983 -0.157537,-0.0444 -0.298347,-0.12792 -0.45477,-0.17532 -0.144594,-0.0532 -0.28632,-0.11284 -0.430921,-0.16614 -0.138692,-0.0675 -0.271125,-0.14953 -0.40255,-0.23041 -0.116361,-0.0851 -0.234936,-0.16432 -0.372876,-0.20848 -0.15208,-0.0523 -0.291248,-0.135 -0.434878,-0.20613 -0.123226,-0.062 -0.223022,-0.16064 -0.345294,-0.22293 -0.123419,-0.0763 -0.249525,-0.14751 -0.3728,-0.22388 -0.131452,-0.0875 -0.248831,-0.19472 -0.378356,-0.28414 -0.133471,-0.0884 -0.253948,-0.19027 -0.372964,-0.29741 -0.129532,-0.15541 -0.272356,-0.29613 -0.42185,-0.43202 -0.129717,-0.11315 -0.254472,-0.23271 -0.387806,-0.34152 -0.132179,-0.0944 -0.237748,-0.21372 -0.334488,-0.3429 -0.0677,-0.12872 -0.141631,-0.25249 -0.222314,-0.37344 -0.07095,-0.13244 -0.130586,-0.2704 -0.206687,-0.40015 -0.06907,-0.12737 -0.141966,-0.25205 -0.196496,-0.38653 -0.07056,-0.13758 -0.116559,-0.28493 -0.165609,-0.43097 -0.04817,-0.15527 -0.09181,-0.31124 -0.115151,-0.47226 -0.04247,-0.17801 -0.05572,-0.36046 -0.0832,-0.54081 -0.03732,-0.19398 -0.05617,-0.38967 -0.06453,-0.58679 -0.01919,-0.22127 0.02209,-0.43573 0.08326,-0.64686 0.05624,-0.20121 0.132292,-0.39421 0.223822,-0.58168 0.111423,-0.22012 0.271421,-0.41058 0.429525,-0.59825 0.174522,-0.20752 0.352864,-0.41109 0.548801,-0.59867 0.149009,-0.14144 0.309044,-0.27185 0.480711,-0.38477 0.444801,-0.28635 0.908649,-0.53401 1.371722,-0.79186 0.18336,-0.075 0.368228,-0.14553 0.554788,-0.21219 0.216438,-0.0933 0.443885,-0.14823 0.677088,-0.17655 0.30872,-0.0288 0.619289,-0.0263 0.92903,-0.0264 0.320124,10e-4 0.640233,-0.001 0.96035,-0.002 0.190104,-7.6e-4 0.3802,-0.004 0.570306,-0.003 0.159203,-4.8e-4 0.318402,-1.9e-4 0.477604,-2e-5 0.165972,-2e-5 0.331947,-3e-4 0.497918,4.5e-4 0.204684,7.4e-4 0.409375,8.4e-4 0.614055,0.002 0.226964,0.0127 0.449392,-0.0203 0.665077,-0.0898 0.178278,-0.0577 0.345713,-0.1439 0.519007,-0.21466 -0.214428,0.14065 0.550918,-0.30145 0.329592,-0.17586 -0.780934,0.4431 -0.997551,0.60923 -0.690858,0.38049 0.0234,-0.018 0.0468,-0.036 0.0702,-0.054 0,0 0.909923,-0.36436 0.909923,-0.36436 v 0 c -0.02319,0.0187 -0.04637,0.0374 -0.06955,0.0561 -0.403561,0.30585 -0.85823,0.54832 -1.316695,0.76339 -0.171949,0.0749 -0.342456,0.15617 -0.524736,0.20344 -0.223794,0.0532 -0.448481,0.0814 -0.679072,0.0672 -0.206695,10e-4 -0.413401,10e-4 -0.620099,0.002 -0.166377,7.1e-4 -0.33276,4.7e-4 -0.499139,4.5e-4 -0.159177,1.7e-4 -0.31835,4.7e-4 -0.477528,-8e-5 -0.186917,4.2e-4 -0.373816,-0.003 -0.560723,-0.004 -0.316968,-0.002 -0.633926,-0.006 -0.950913,-0.004 -0.310256,0.003 -0.621881,0.003 -0.930031,0.0441 -0.231815,0.0403 -0.455502,0.10617 -0.672476,0.198 -0.183764,0.0685 -0.368324,0.13553 -0.547748,0.21496 1.45402,-0.85381 0.634487,-0.38015 0.305873,-0.16756 -0.178826,0.10371 -0.342613,0.23216 -0.496237,0.37017 -0.199731,0.18263 -0.383273,0.37989 -0.554079,0.59007 -0.158806,0.17684 -0.313657,0.36363 -0.428532,0.57244 -0.09863,0.1804 -0.180404,0.36789 -0.235816,0.56635 -0.05914,0.20227 -0.117564,0.40386 -0.0971,0.61796 0.0093,0.19297 0.02507,0.38564 0.06215,0.57557 0.03,0.18017 0.03944,0.3637 0.08637,0.54119 0.0212,0.15576 0.06074,0.30604 0.109007,0.45551 0.04691,0.14397 0.08978,0.29008 0.162398,0.42384 0.05632,0.12861 0.119769,0.25341 0.187421,0.37642 0.07605,0.12781 0.138186,0.2628 0.20859,0.39373 0.07754,0.12038 0.149275,0.24359 0.216576,0.37003 0.09205,0.12454 0.197753,0.23224 0.323364,0.32359 0.129564,0.11438 0.256026,0.23227 0.384428,0.34798 0.148137,0.13712 0.287036,0.28238 0.425367,0.42928 0.115431,0.10578 0.240394,0.19725 0.368063,0.28745 0.124102,0.0931 0.243114,0.19345 0.373902,0.27759 0.124153,0.0733 0.248679,0.14584 0.372605,0.21963 0.116379,0.0693 0.219211,0.15879 0.339752,0.22181 0.140552,0.072 0.281844,0.14515 0.432178,0.19478 0.137367,0.0575 0.259169,0.14085 0.381846,0.22454 0.128366,0.0754 0.252629,0.16072 0.390946,0.21668 0.143294,0.0551 0.286848,0.10953 0.43111,0.16203 0.153831,0.0574 0.299534,0.13438 0.45715,0.18214 0.144434,0.0621 0.291724,0.11657 0.43434,0.1829 0.183627,0.076 0.376254,0.12951 0.559617,0.20672 0.136428,0.0462 0.277865,0.066 0.413727,0.1136 0.142705,0.0578 0.280449,0.12285 0.405506,0.21418 0.156592,0.0895 0.313868,0.17783 0.467843,0.27178 0.133216,0.0842 0.269478,0.16193 0.40875,0.23571 0.125667,0.0636 0.254846,0.12661 0.337766,0.2456 0.07266,0.11737 0.08416,0.2414 0.05676,0.37653 -0.02794,0.14534 -0.08059,0.27822 -0.151045,0.40826 -0.07295,0.13273 -0.135334,0.27448 -0.256082,0.37242 -0.16578,0.15401 -0.325309,0.31557 -0.520855,0.4333 -0.261409,0.19245 -0.504365,0.40771 -0.774055,0.58905 -0.507773,0.32642 -1.992361,1.15535 -0.486339,0.29855 0.05444,-0.031 -0.106682,0.0657 -0.160154,0.0983 -0.05098,0.0311 -0.102335,0.0616 -0.1532,0.0929 -0.04938,0.0304 -0.09836,0.0614 -0.147541,0.0921 -0.519353,0.32157 -1.041842,0.64398 -1.595434,0.9038 -0.334446,0.14515 -0.675705,0.27413 -1.013142,0.4121 -0.469399,0.18329 -0.936362,0.3746 -1.419847,0.51891 -0.520286,0.14442 -1.04743,0.26461 -1.584882,0.32494 -0.520081,0.0548 -1.041422,0.0908 -1.564808,0.0771 -0.3636238,0.002 -0.7273944,0.002 -1.090871,0.0129 0,0 0.7996004,-0.58094 0.7996004,-0.58094 z"
             id="path4575"
             style="opacity:1;fill:#ffffff;fill-opacity:1;stroke:#ffffff;stroke-width:2.87071657;stroke-linecap:round;stroke-linejoin:round;stroke-miterlimit:4;stroke-dasharray:none;stroke-opacity:1;paint-order:normal" />
        </g>
      </g>
    </g>
  </g>
</svg>
